<svg class="header-svg-icon" xmlns="http://www.w3.org/2000/svg" viewBox="0 0 18 18" data-t="search-svg" aria-labelledby="search-svg" aria-hidden="false" role="img"><title id="search-svg">Buscar</title>
    <path d="M10.98 1.67c1.4 0 1.71.01 2.45.05.89.04 1.5.18 2.02.38a4.19 4.19 0 0 1 2.44 2.44c.2.53.35 1.14.39 2.02l.02.4v.2c.02.5.03 1.01.03 2.31v1.05c0 1.3-.01 1.82-.03 2.32v.19l-.02.4a6.1 6.1 0 0 1-.39 2.02c-.21.55-.5 1.02-.96 1.48-.46.46-.93.75-1.48.96a6.1 6.1 0 0 1-2.02.39l-.4.02h-.2c-.49.02-1 .03-2.3.03H9.46c-1.3 0-1.82-.01-2.31-.03h-.2l-.4-.02a6.1 6.1 0 0 1-2.02-.39 4.08 4.08 0 0 1-1.47-.96 4.09 4.09 0 0 1-.97-1.48 6.1 6.1 0 0 1-.38-2.02c-.04-.74-.05-1.06-.05-2.45V9.02c0-1.4.01-1.72.05-2.46a6.3 6.3 0 0 1 .38-2.02c.22-.55.5-1.01.96-1.47a4.1 4.1 0 0 1 1.48-.97 6.1 6.1 0 0 1 2.02-.38 44.6 44.6 0 0 1 2.46-.05zm-.71 1.5H9.04c-1.37 0-1.68.01-2.4.05-.82.03-1.26.17-1.56.28-.38.15-.66.33-.95.63-.3.29-.48.57-.63.95-.11.3-.25.74-.28 1.55-.04.73-.05 1.04-.05 2.4v1.93c0 1.37.01 1.67.05 2.4.03.82.17 1.26.28 1.55.15.39.34.67.63.96.29.29.57.47.95.62.3.12.74.25 1.55.29.8.03 1.1.04 2.85.05h1.03c1.76 0 2.05-.02 2.85-.05a4.57 4.57 0 0 0 1.55-.29 2.65 2.65 0 0 0 1.58-1.58c.12-.3.25-.73.29-1.55.03-.8.04-1.09.05-2.85V9.48c0-1.75-.02-2.04-.05-2.85a4.59 4.59 0 0 0-.29-1.55 2.56 2.56 0 0 0-.62-.95c-.3-.3-.57-.48-.96-.63a4.6 4.6 0 0 0-1.55-.28 34.6 34.6 0 0 0-2.4-.05H10zM10 5.72a4.28 4.28 0 1 1 0 8.56 4.28 4.28 0 0 1 0-8.56zm0 1.5a2.78 2.78 0 1 0 0 5.56 2.78 2.78 0 0 0 0-5.56zm4.44-2.67a1 1 0 1 1 0 2 1 1 0 0 1 0-2z">
    </path>
</svg>